<?xml version="1.0" encoding="UTF-8" standalone="no"?>
<!-- Created with Inkscape (http://www.inkscape.org/) -->

<svg
   width="128"
   height="128"
   viewBox="0 0 33.866666 33.866667"
   version="1.1"
   id="svg5"
   inkscape:version="1.1.2 (0a00cf5339, 2022-02-04)"
   sodipodi:docname="hebo.svg"
   xmlns:inkscape="http://www.inkscape.org/namespaces/inkscape"
   xmlns:sodipodi="http://sodipodi.sourceforge.net/DTD/sodipodi-0.dtd"
   xmlns="http://www.w3.org/2000/svg"
   xmlns:svg="http://www.w3.org/2000/svg">
  <sodipodi:namedview
     id="namedview7"
     pagecolor="#ffffff"
     bordercolor="#666666"
     borderopacity="1.0"
     inkscape:pageshadow="2"
     inkscape:pageopacity="0.0"
     inkscape:pagecheckerboard="0"
     inkscape:document-units="px"
     showgrid="false"
     units="px"
     width="256px"
     inkscape:zoom="2.7652076"
     inkscape:cx="195.10289"
     inkscape:cy="119.70168"
     inkscape:window-width="1920"
     inkscape:window-height="1011"
     inkscape:window-x="0"
     inkscape:window-y="0"
     inkscape:window-maximized="1"
     inkscape:current-layer="text31076" />
  <defs
     id="defs2" />
  <g
     inkscape:label="Layer 1"
     inkscape:groupmode="layer"
     id="layer1">
    <g
       aria-label="河伯"
       id="text31076"
       style="font-size:16.9333px;line-height:1.25;font-family:'AR PL UKai CN';-inkscape-font-specification:'AR PL UKai CN';stroke-width:0.264583">
      <path
         d="m 4.4095678,11.272432 q 0.3638014,0.314192 0.7937485,0.727603 0.2645828,0.248047 0.5622384,0.214974 0.1984371,-0.01654 0.2811193,-0.264583 0.066146,-0.297656 -0.115755,-0.843358 -0.115755,-0.314192 -0.6118478,-0.496093 -1.2402319,-0.363801 -1.4552054,-0.23151 -0.099219,0.06615 -0.049609,0.314192 0.066146,0.214974 0.5953113,0.578775 z m -1.670179,3.24114 q 0.6945299,0.744139 1.3063776,0.975649 0.2976557,0.01654 0.4464835,-0.23151 0.099219,-0.264583 0.016536,-0.578775 -0.1653643,-0.446483 -0.5126292,-0.661457 -0.5457021,-0.297656 -1.3394505,-0.297656 -0.1488279,0 -0.23151,0.04961 -0.115755,0.04961 -0.049609,0.281119 0.049609,0.214973 0.3638014,0.46302 z m 0.1322914,5.804285 q -0.1984371,0.06615 -0.1653642,0.363802 0.2976556,1.289841 0.8268212,1.604033 0.115755,0.115755 0.2976557,0.06615 0.1488278,-0.01654 0.1488278,-0.46302 0.099219,-0.661457 0.46302,-1.637106 1.2567683,-3.423041 1.2567683,-3.505723 -0.016536,-0.165364 -0.1653642,-0.04961 -0.1653643,0.09922 -2.017444,2.976557 -0.2149735,0.314192 -0.6449206,0.64492 z m 4.8782456,-2.215881 q 0.115755,0.01654 0.2645828,-0.01654 0.6614571,-0.148828 2.1497354,-0.264583 0.165364,-0.01654 0.181901,-0.181901 0,-0.115755 -0.3472653,-0.330728 0.3638013,-1.107941 0.7276023,-1.438669 0.413411,-0.413411 0.01654,-0.677994 -0.314192,-0.214973 -0.7772121,-0.512629 -0.3141921,-0.198437 -1.0914041,0.23151 -1.2567684,0.363801 -1.5048148,0.429947 -0.1653642,-0.115755 -0.7937484,-0.23151 -0.1984371,-0.04961 -0.2480464,0.03307 -0.115755,0.09922 0.033073,0.363801 0.4134106,0.859895 0.661457,2.232418 0.016536,0.413411 0.2811192,0.69453 0.2976557,0.363801 0.3803378,0.115755 0.066146,-0.165365 0.066146,-0.446484 z M 9.0728399,17.192473 Q 8.3121643,17.407446 7.7003165,17.556274 7.5018794,16.266433 7.485343,15.819949 q 1.3063777,-0.248046 1.5048148,-0.297655 0.3638013,-0.06615 0.4630199,0.08268 0.099219,0.06615 -0.049609,0.562238 -0.115755,0.46302 -0.2811192,1.025259 -0.016537,-0.01654 -0.049609,0 z m 2.4639271,-4.464835 q 0.01654,0.09922 0.132292,0.23151 0.214973,0.46302 0.214973,1.240232 0.06615,2.149735 0.08268,7.044517 -0.01654,0.496093 -0.198437,0.677994 -0.148828,0.09922 -1.256768,-0.28112 -0.248046,-0.09922 -0.297656,0.01654 0,0.165364 0.165365,0.363801 0.909503,1.107941 1.488278,1.934762 0.214973,0.165364 0.479556,-0.115755 0.843358,-1.008722 0.810285,-2.480464 -0.297656,-4.613663 -0.08268,-7.590219 0.115755,-0.51263 -0.01654,-0.711067 -0.115755,-0.198437 -0.51263,-0.41341 1.15755,-0.09922 3.075776,-0.115755 0.347264,-0.01654 0.41341,-0.165365 0.09922,-0.198437 -0.198437,-0.429947 -0.942576,-0.64492 -1.554424,-0.479556 -2.232417,0.512629 -8.3012857,1.438669 -0.3638014,0.04961 -0.082682,0.330729 0.5126292,0.46302 1.1906227,0.314192 2.2985632,-0.661457 4.4482982,-0.810285 z"
         id="path70954" />
      <path
         d="m 21.127894,14.976592 q 0.496093,1.091404 0.181901,4.398689 -0.115755,0.942576 -0.363801,1.918225 -0.248047,0.810285 0.363801,1.604034 0.01654,0.04961 0.08268,0.09922 0.314192,0.264583 0.512629,-0.198437 0.248047,-0.69453 0.248047,-1.488278 -0.01654,-4.630199 0.132291,-5.671994 0.115755,-0.496093 -0.314192,-0.959113 -0.09922,-0.09922 -0.347265,-0.363801 0.562239,-0.810285 1.190623,-1.785934 0.46302,-0.859894 0.892967,-1.256769 0.165364,-0.198437 0.08268,-0.446483 -0.06615,-0.248046 -0.595311,-0.644921 -0.496093,-0.3472647 -0.826822,-0.3307282 -0.347265,0.016536 -0.198437,0.4299472 0.248047,0.562238 0.03307,1.041795 -0.661457,1.604033 -1.653643,3.075775 -0.959112,1.438669 -2.282026,3.009629 -0.165365,0.198437 -0.214974,0.297656 -0.06615,0.214974 0.198437,0.165364 0.644921,-0.148828 2.596219,-2.563146 0.115755,-0.165364 0.281119,-0.330728 z m 4.663272,6.746861 q 0.04961,0 0.132292,0 0.942576,-0.198437 2.877338,-0.281119 0.214973,0.46302 0.810285,1.405596 0.165364,0.314193 0.363801,0.264583 0.297656,-0.06614 0.413411,-0.562238 0.611847,-1.504815 0.512629,-3.489186 0.01654,-1.240232 0.01654,-2.662365 0.06615,-0.810284 0.446484,-1.33945 0.264583,-0.363801 0.06615,-0.578775 -0.396875,-0.363801 -1.190623,-0.69453 -0.347265,-0.198437 -1.637106,0.330729 -1.141014,0.314192 -2.3151,0.529165 0.46302,-0.64492 1.752861,-2.530073 0.248047,-0.413411 0.595312,-0.727603 0.314192,-0.314192 0.01654,-0.562238 -0.347265,-0.214974 -0.876431,-0.314192 -0.512629,-0.09922 -0.711066,0.03307 -0.214973,0.115755 -0.06615,0.314192 0.248047,0.512629 -0.777212,2.943484 -0.198437,0.41341 -0.380337,0.909503 -0.214974,0 -0.46302,0.04961 -0.148828,-0.148828 -0.529166,-0.281119 -0.165364,-0.06615 -0.363801,0.01654 -0.115755,0.06615 -0.01654,0.28112 0.363802,1.33945 0.46302,2.480464 0,2.596218 -0.09922,3.340358 -0.446484,0.810284 0.41341,1.785934 0.198437,0.214973 0.363802,0 0.198437,-0.297656 0.1819,-0.661458 z m 3.208067,-0.992185 q -0.264583,-0.165364 -0.826821,-0.04961 -1.289842,0.264582 -2.364709,0.429947 0,-0.264583 -0.01654,-0.562239 -0.01654,-1.306377 -0.06614,-2.282026 0.446483,0.115754 3.141921,-0.396875 0.06614,-0.01654 0.115755,-0.04961 0.148827,-0.115755 0.06614,-0.248046 -0.115755,-0.198437 -0.578775,-0.314192 -0.41341,-0.09922 -1.819006,0.297655 -0.01654,0 -0.92604,0.148828 -0.01654,-1.33945 -0.03307,-2.364709 0.04961,-0.06615 3.356894,-0.677993 0.363802,-0.06615 0.496093,0.08268 0.248046,0.115755 0.264583,0.661457 0.165364,2.596219 -0.132292,5.192438 0,0.446483 -0.214973,0.529165 -0.115755,-0.148828 -0.46302,-0.396874 z"
         id="path70956" />
    </g>
  </g>
</svg>
