<?xml version="1.0" encoding="UTF-8" standalone="no"?>
<svg
   xmlns:dc="http://purl.org/dc/elements/1.1/"
   xmlns:cc="http://creativecommons.org/ns#"
   xmlns:rdf="http://www.w3.org/1999/02/22-rdf-syntax-ns#"
   xmlns:svg="http://www.w3.org/2000/svg"
   xmlns="http://www.w3.org/2000/svg"
   xmlns:sodipodi="http://sodipodi.sourceforge.net/DTD/sodipodi-0.dtd"
   xmlns:inkscape="http://www.inkscape.org/namespaces/inkscape"
   width="128"
   height="128"
   viewBox="0 0 33.866664 33.866664"
   version="1.1"
   id="svg8"
   inkscape:version="1.0.2 (e86c870879, 2021-01-15)"
   sodipodi:docname="hebo-x128.svg">
  <defs
     id="defs2" />
  <sodipodi:namedview
     id="base"
     pagecolor="#ffffff"
     bordercolor="#666666"
     borderopacity="1.0"
     inkscape:pageopacity="0.0"
     inkscape:pageshadow="2"
     inkscape:zoom="6.203125"
     inkscape:cx="64"
     inkscape:cy="64"
     inkscape:document-units="px"
     inkscape:current-layer="text855"
     inkscape:document-rotation="0"
     showgrid="false"
     units="px"
     inkscape:window-width="1533"
     inkscape:window-height="991"
     inkscape:window-x="26"
     inkscape:window-y="23"
     inkscape:window-maximized="0" />
  <metadata
     id="metadata5">
    <rdf:RDF>
      <cc:Work
         rdf:about="">
        <dc:format>image/svg+xml</dc:format>
        <dc:type
           rdf:resource="http://purl.org/dc/dcmitype/StillImage" />
        <dc:title></dc:title>
      </cc:Work>
    </rdf:RDF>
  </metadata>
  <g
     inkscape:label="Layer 1"
     inkscape:groupmode="layer"
     id="layer1">
    <g
       aria-label="H"
       id="text855"
       style="font-style:normal;font-variant:normal;font-weight:normal;font-stretch:normal;font-size:7.76111px;line-height:1.25;font-family:Caladea;-inkscape-font-specification:Caladea;fill:#e00400;fill-opacity:1;stroke-width:0.264583">
      <path
         d="m 21.217466,17.445566 -4.404402,-1.083826 -4.13282,1.083826 v 7.854244 c 0.745066,0.413926 1.759185,0.693325 3.042355,0.838199 -0.08278,0.496712 -0.134525,0.879593 -0.155222,1.148645 H 7.0611994 L 7.2474658,26.138009 C 8.3236735,25.993135 9.2239624,25.713736 9.9483326,25.29981 V 8.5358105 C 9.1204809,8.1011884 8.1581031,7.8217884 7.0611994,7.6976104 7.1439834,7.2008996 7.1957234,6.8283659 7.2164234,6.5800103 h 8.5061776 l -0.186268,1.1176001 c -1.138297,0.144876 -2.090326,0.4242748 -2.856089,0.8382001 l 0.01048,7.0309145 4.083669,-1.791269 4.433392,1.650814 0.0097,-6.8904595 C 20.41031,8.1218844 19.396191,7.8424844 18.17511,7.6976104 18.257894,7.2008996 18.309634,6.8283659 18.33033,6.5800103 h 8.475133 c -0.08278,0.4967112 -0.134524,0.8692445 -0.155224,1.1176001 -1.014119,0.12418 -1.914407,0.4035788 -2.700867,0.8382001 V 25.29981 c 0.703677,0.413926 1.655708,0.693325 2.856093,0.838199 l -0.124178,1.148645 H 18.17511 l 0.186267,-1.148645 c 1.200385,-0.144874 2.152415,-0.424273 2.856089,-0.838199 z"
         style="font-style:normal;font-variant:normal;font-weight:normal;font-stretch:normal;font-size:7.76111px;font-family:Caladea;-inkscape-font-specification:Caladea;fill:#e00400;fill-opacity:1;stroke-width:1.05833"
         id="path857"
         sodipodi:nodetypes="ccccccccccccccccccccccccccccccc" />
    </g>
  </g>
</svg>
