<?xml version="1.0" encoding="UTF-8" standalone="no"?>
<svg
   xmlns:dc="http://purl.org/dc/elements/1.1/"
   xmlns:cc="http://creativecommons.org/ns#"
   xmlns:rdf="http://www.w3.org/1999/02/22-rdf-syntax-ns#"
   xmlns:svg="http://www.w3.org/2000/svg"
   xmlns="http://www.w3.org/2000/svg"
   xmlns:sodipodi="http://sodipodi.sourceforge.net/DTD/sodipodi-0.dtd"
   xmlns:inkscape="http://www.inkscape.org/namespaces/inkscape"
   width="32"
   height="32"
   viewBox="0 0 8.4666659 8.4666659"
   version="1.1"
   id="svg8"
   inkscape:version="1.0.2 (e86c870879, 2021-01-15)"
   sodipodi:docname="hebo.svg">
  <defs
     id="defs2" />
  <sodipodi:namedview
     id="base"
     pagecolor="#ffffff"
     bordercolor="#666666"
     borderopacity="1.0"
     inkscape:pageopacity="0.0"
     inkscape:pageshadow="2"
     inkscape:zoom="24.8125"
     inkscape:cx="16"
     inkscape:cy="14.387909"
     inkscape:document-units="px"
     inkscape:current-layer="text855"
     inkscape:document-rotation="0"
     showgrid="false"
     units="px"
     inkscape:window-width="1533"
     inkscape:window-height="991"
     inkscape:window-x="26"
     inkscape:window-y="23"
     inkscape:window-maximized="0" />
  <metadata
     id="metadata5">
    <rdf:RDF>
      <cc:Work
         rdf:about="">
        <dc:format>image/svg+xml</dc:format>
        <dc:type
           rdf:resource="http://purl.org/dc/dcmitype/StillImage" />
        <dc:title></dc:title>
      </cc:Work>
    </rdf:RDF>
  </metadata>
  <g
     inkscape:label="Layer 1"
     inkscape:groupmode="layer"
     id="layer1">
    <g
       aria-label="H"
       id="text855"
       style="font-style:normal;font-variant:normal;font-weight:normal;font-stretch:normal;font-size:7.76111px;line-height:1.25;font-family:Caladea;-inkscape-font-specification:Caladea;fill:#e00400;fill-opacity:1;stroke-width:0.264583">
      <path
         d="M 5.304366,4.3613911 4.2032658,4.0904348 3.1700608,4.3613911 V 6.3249519 C 3.3563274,6.4284334 3.609857,6.4982833 3.9306495,6.5345018 3.9099532,6.6586796 3.8970181,6.7544 3.891844,6.8216629 H 1.7652999 L 1.8118665,6.5345018 C 2.0809184,6.4982833 2.3059906,6.4284334 2.4870831,6.3249519 V 2.1339526 C 2.2801202,2.0252971 2.0395258,1.9554471 1.7652999,1.9244026 c 0.020696,-0.1241777 0.033631,-0.2173111 0.038806,-0.2794 H 3.93065 l -0.046567,0.2794 c -0.2845741,0.036219 -0.5225814,0.1060687 -0.7140221,0.20955 l 0.00262,1.7577285 1.0209171,-0.4478172 1.1083479,0.4127033 0.00242,-1.7226146 C 5.1025771,2.0304711 4.8490475,1.9606211 4.5437772,1.9244026 c 0.020696,-0.1241777 0.033631,-0.2173111 0.038805,-0.2794 h 2.118783 c -0.020696,0.1241778 -0.033631,0.2173111 -0.038806,0.2794 -0.2535296,0.031045 -0.4786018,0.1008947 -0.6752166,0.20955 V 6.3249519 C 6.1632618,6.4284334 6.4012695,6.4982833 6.7013657,6.5345018 L 6.6703213,6.8216629 H 4.5437772 L 4.5903439,6.5345018 C 4.8904401,6.4982833 5.1284475,6.4284334 5.304366,6.3249519 Z"
         style="font-style:normal;font-variant:normal;font-weight:normal;font-stretch:normal;font-size:7.76111px;font-family:Caladea;-inkscape-font-specification:Caladea;fill:#e00400;fill-opacity:1;stroke-width:0.264583"
         id="path857"
         sodipodi:nodetypes="ccccccccccccccccccccccccccccccc" />
    </g>
  </g>
</svg>
